<svg xmlns="http://www.w3.org/2000/svg" xmlns:xlink="http://www.w3.org/1999/xlink" width="500" zoomAndPan="magnify" viewBox="0 0 375 374.999991" height="500" preserveAspectRatio="xMidYMid meet" version="1.0"><defs><g/><clipPath id="466ab946b6"><path d="M 173.46875 158.359375 L 247.085938 158.359375 L 247.085938 182.128906 L 173.46875 182.128906 Z M 173.46875 158.359375 " clip-rule="nonzero"/></clipPath></defs><rect x="-37.5" width="450" fill="#ffffff" y="-37.499999" height="449.999989" fill-opacity="1"/><rect x="-37.5" width="450" fill="#000000" y="-37.499999" height="449.999989" fill-opacity="1"/><g clip-path="url(#466ab946b6)"><path fill="#000000" d="M 173.46875 158.359375 L 247.105469 158.359375 L 247.105469 182.128906 L 173.46875 182.128906 Z M 173.46875 158.359375 " fill-opacity="1" fill-rule="nonzero"/></g><g fill="#f8f8f8" fill-opacity="1"><g transform="translate(99.897391, 276.629853)"><g><path d="M 145.328125 -178.203125 L 152.609375 -178.203125 L 152.609375 0 L 146.828125 0 L 29.875 -163.65625 L 29.875 0 L 22.59375 0 L 22.59375 -178.203125 L 28.609375 -178.203125 L 145.328125 -14.5625 Z M 145.328125 -178.203125 "/></g></g></g><path stroke-linecap="butt" transform="matrix(0.433466, 0.612052, -0.612052, 0.433466, 129.813159, 135.242408)" fill="none" stroke-linejoin="miter" d="M -0.000971622 4.002043 L 233.940237 4.000892 " stroke="#ffffff" stroke-width="8" stroke-opacity="1" stroke-miterlimit="4"/><path stroke-linecap="butt" transform="matrix(0.433466, 0.612052, -0.612052, 0.433466, 150.972578, 91.03358)" fill="none" stroke-linejoin="miter" d="M -0.00269907 3.999614 L 233.938509 3.998463 " stroke="#ffffff" stroke-width="8" stroke-opacity="1" stroke-miterlimit="4"/><g fill="#f8f8f8" fill-opacity="1"><g transform="translate(216.806226, 139.174766)"><g><path d="M 32.734375 0.6875 C 27.046875 0.6875 22.117188 -0.5 17.953125 -2.875 C 13.796875 -5.257812 10.597656 -8.691406 8.359375 -13.171875 C 6.117188 -17.660156 5 -23.085938 5 -29.453125 C 5 -35.828125 6.242188 -41.46875 8.734375 -46.375 C 11.234375 -51.289062 14.679688 -55.125 19.078125 -57.875 C 23.472656 -60.632812 28.570312 -62.015625 34.375 -62.015625 C 39.707031 -62.015625 44.398438 -60.75 48.453125 -58.21875 C 52.503906 -55.695312 55.648438 -52.179688 57.890625 -47.671875 C 60.128906 -43.171875 61.25 -37.875 61.25 -31.78125 C 61.25 -25.175781 60.015625 -19.445312 57.546875 -14.59375 C 55.078125 -9.75 51.703125 -5.988281 47.421875 -3.3125 C 43.140625 -0.644531 38.242188 0.6875 32.734375 0.6875 Z M 32.734375 -5.421875 C 37.035156 -5.421875 40.804688 -6.46875 44.046875 -8.5625 C 47.296875 -10.664062 49.835938 -13.695312 51.671875 -17.65625 C 53.515625 -21.625 54.4375 -26.390625 54.4375 -31.953125 C 54.4375 -36.835938 53.617188 -41.070312 51.984375 -44.65625 C 50.347656 -48.25 48.035156 -51.019531 45.046875 -52.96875 C 42.066406 -54.925781 38.535156 -55.90625 34.453125 -55.90625 C 30.035156 -55.90625 26.117188 -54.796875 22.703125 -52.578125 C 19.285156 -50.367188 16.613281 -47.285156 14.6875 -43.328125 C 12.757812 -39.367188 11.796875 -34.742188 11.796875 -29.453125 C 11.796875 -21.765625 13.660156 -15.835938 17.390625 -11.671875 C 21.128906 -7.503906 26.242188 -5.421875 32.734375 -5.421875 Z M 32.734375 -5.421875 "/></g></g></g><g fill="#f8f8f8" fill-opacity="1"><g transform="translate(98.359342, 278.205743)"><g><path d="M 33.6875 -22.484375 C 31.78125 -17.234375 29.984375 -12.0625 28.421875 -7.234375 C 26.875 -12.0625 25.0625 -17.234375 23.171875 -22.484375 L 8.953125 -61.328125 L 1.296875 -61.328125 L 24.375 0 L 32.46875 0 L 55.21875 -61.328125 L 47.640625 -61.328125 Z M 33.6875 -22.484375 "/></g></g></g></svg>